<?xml version="1.0" standalone="no"?>
<!DOCTYPE svg PUBLIC "-//W3C//DTD SVG 20010904//EN"
 "http://www.w3.org/TR/2001/REC-SVG-20010904/DTD/svg10.dtd">
<svg version="1.0" xmlns="http://www.w3.org/2000/svg"
 width="101.000000pt" height="80.000000pt" viewBox="0 0 101.000000 80.000000"
 preserveAspectRatio="xMidYMid meet">

<g transform="translate(0.000000,80.000000) scale(0.100000,-0.100000)"
fill="#000000" stroke="none">
<path d="M428 769 c-33 -24 -118 -178 -118 -213 0 -18 -8 -30 -29 -40 -16 -9
-31 -22 -34 -30 -3 -8 -22 -19 -41 -26 -20 -6 -34 -16 -31 -21 4 -5 -9 -9 -27
-9 -81 0 -132 -70 -133 -183 0 -63 2 -71 28 -93 31 -26 83 -32 119 -13 15 8
32 8 66 -2 35 -10 47 -10 50 -1 2 7 9 9 15 5 7 -4 72 -8 144 -9 73 0 136 -3
139 -7 4 -4 6 -33 6 -65 l-1 -58 199 1 c109 0 202 3 206 7 4 5 7 24 6 43 -1
19 3 37 8 40 6 3 10 17 10 30 0 25 0 25 -97 22 l-98 -2 0 43 c0 25 -6 46 -14
51 -20 13 -6 77 19 84 19 5 46 79 35 97 -3 6 -29 10 -56 10 -28 0 -48 4 -45 9
4 5 -14 17 -39 27 -25 9 -45 20 -45 23 0 4 -16 15 -36 26 -27 15 -34 23 -30
39 3 13 -7 46 -27 84 -25 48 -29 64 -19 71 9 5 -4 19 -42 44 -31 20 -57 37
-58 37 -2 0 -15 -10 -30 -21z m70 -19 c18 -11 30 -25 27 -30 -4 -6 10 -39 29
-74 20 -35 36 -70 36 -78 0 -7 -14 -29 -31 -48 l-30 -35 21 44 c22 43 22 44 2
63 -18 18 -23 19 -54 8 -27 -10 -43 -10 -68 -1 -27 9 -38 8 -57 -4 -28 -19
-28 -16 -2 -68 l20 -42 -30 35 c-17 19 -31 41 -31 49 0 22 89 179 108 190 23
14 22 14 60 -9z m-78 -200 c0 -5 -2 -10 -4 -10 -3 0 -8 5 -11 10 -3 6 -1 10 4
10 6 0 11 -4 11 -10z m100 6 c0 -3 -4 -8 -10 -11 -5 -3 -10 -1 -10 4 0 6 5 11
10 11 6 0 10 -2 10 -4z m-149 -101 c26 -24 44 -47 38 -50 -5 -4 -10 -21 -11
-38 -1 -26 -2 -23 -7 13 l-6 45 -50 6 c-33 4 -40 7 -20 8 l30 2 -28 21 c-22
16 -25 23 -15 29 19 12 16 13 69 -36z m248 36 c11 -7 8 -13 -13 -26 -15 -10
-25 -24 -22 -31 2 -6 -4 -20 -14 -29 -11 -10 -23 -27 -26 -39 -6 -18 -9 -16
-20 17 -13 37 -13 37 29 77 46 44 46 43 66 31z m-346 -73 c-6 -7 -12 -20 -14
-29 -3 -14 -9 -11 -31 12 l-26 29 26 14 c23 12 29 13 41 1 10 -10 11 -18 4
-27z m420 25 l32 -18 -44 -3 c-50 -4 -59 1 -41 23 15 19 14 19 53 -2z m-226
-19 c-3 -3 -12 -4 -19 -1 -8 3 -5 6 6 6 11 1 17 -2 13 -5z m-260 -37 c7 -7 14
-23 15 -37 2 -20 -2 -26 -23 -28 -20 -2 -28 2 -32 19 -12 45 -65 -12 -74 -80
-7 -48 8 -66 39 -50 21 11 24 29 4 29 -7 0 -16 9 -19 19 -5 22 16 31 76 31 41
0 44 -7 21 -56 -33 -70 -125 -100 -158 -52 -39 55 -4 187 56 213 35 15 75 12
95 -8z m141 15 c7 -5 16 -49 22 -112 5 -57 12 -105 15 -108 8 -9 23 44 35 126
11 72 14 81 36 86 35 9 41 2 49 -54 4 -27 10 -52 14 -54 4 -3 19 17 34 43 34
62 49 73 82 65 21 -5 25 -11 20 -28 -3 -11 -11 -63 -18 -113 l-11 -93 -30 0
c-28 0 -29 0 -22 46 7 53 -3 51 -29 -6 -25 -56 -52 -54 -61 5 -7 52 -19 51
-28 -3 l-6 -38 -65 0 -65 0 0 33 c0 46 -33 46 -47 1 -7 -27 -13 -32 -33 -30
-14 2 -27 6 -29 7 -3 3 36 108 79 213 10 22 34 28 58 14z m474 3 c3 -3 3 -16
0 -30 -4 -21 -10 -24 -50 -27 -35 -2 -48 -7 -50 -20 -3 -14 3 -18 23 -18 22 0
26 -4 23 -22 -2 -17 -11 -24 -30 -26 -22 -3 -28 -9 -28 -28 0 -21 4 -24 41
-24 33 0 40 -3 35 -16 -3 -9 -6 -20 -6 -25 0 -10 -62 -12 -108 -3 -28 6 -30 8
-21 32 6 14 13 61 16 104 3 43 11 82 17 86 6 3 31 9 56 13 64 9 76 10 82 4z
m-176 -317 c-20 -28 -20 -38 -1 -38 27 0 15 -18 -15 -22 -35 -5 -38 6 -10 42
25 32 25 43 0 35 -11 -3 -20 -2 -20 4 0 11 53 20 58 9 2 -4 -4 -18 -12 -30z
m104 32 c0 -5 -6 -10 -14 -10 -9 0 -17 -15 -21 -40 -8 -49 -23 -53 -17 -5 3
21 0 35 -7 35 -20 0 -11 19 12 23 39 8 47 7 47 -3z m80 -36 c0 -26 -32 -64
-54 -64 -21 0 -30 37 -16 70 20 48 70 43 70 -6z m77 31 c3 -9 -2 -24 -11 -34
-12 -14 -13 -20 -3 -30 10 -11 8 -12 -12 -6 -15 5 -27 2 -33 -6 -6 -9 -7 1 -3
31 3 24 11 48 18 52 19 12 37 9 44 -7z m83 5 c0 -5 -11 -10 -25 -10 -25 0 -37
-29 -12 -31 10 0 10 -2 0 -6 -18 -7 -16 -33 2 -33 8 0 15 -4 15 -10 0 -12 -37
-14 -44 -2 -11 17 7 91 23 95 29 8 41 7 41 -3z"/>
<path d="M307 300 c-3 -11 -1 -20 4 -20 5 0 9 9 9 20 0 11 -2 20 -4 20 -2 0
-6 -9 -9 -20z"/>
<path d="M776 94 c-10 -27 -7 -54 8 -54 15 0 26 21 26 51 0 23 -25 25 -34 3z"/>
<path d="M863 105 c-3 -9 -3 -19 1 -22 8 -9 37 18 30 28 -8 14 -24 11 -31 -6z"/>
</g>
</svg>
