<svg width="200" height="200" viewBox="0 0 200 200" xmlns="http://www.w3.org/2000/svg">
  <!-- Fondo blanco -->
  <rect width="200" height="200" fill="white" stroke="#ddd" stroke-width="2"/>
  
  <!-- Marco del QR -->
  <rect x="20" y="20" width="160" height="160" fill="none" stroke="#333" stroke-width="2"/>
  
  <!-- Patrones de QR simulados -->
  <g fill="#333">
    <!-- Esquinas características de QR -->
    <rect x="25" y="25" width="25" height="25"/>
    <rect x="30" y="30" width="15" height="15" fill="white"/>
    <rect x="35" y="35" width="5" height="5" fill="#333"/>
    
    <rect x="150" y="25" width="25" height="25"/>
    <rect x="155" y="30" width="15" height="15" fill="white"/>
    <rect x="160" y="35" width="5" height="5" fill="#333"/>
    
    <rect x="25" y="150" width="25" height="25"/>
    <rect x="30" y="155" width="15" height="15" fill="white"/>
    <rect x="35" y="160" width="5" height="5" fill="#333"/>
    
    <!-- Patrón central -->
    <rect x="90" y="90" width="20" height="20"/>
    <rect x="95" y="95" width="10" height="10" fill="white"/>
    
    <!-- Algunos patrones aleatorios para simular QR -->
    <rect x="60" y="30" width="5" height="5"/>
    <rect x="70" y="30" width="5" height="5"/>
    <rect x="80" y="30" width="5" height="5"/>
    <rect x="60" y="40" width="5" height="5"/>
    <rect x="80" y="40" width="5" height="5"/>
    
    <rect x="120" y="60" width="5" height="5"/>
    <rect x="130" y="60" width="5" height="5"/>
    <rect x="140" y="60" width="5" height="5"/>
    <rect x="120" y="70" width="5" height="5"/>
    <rect x="140" y="70" width="5" height="5"/>
    
    <rect x="40" y="120" width="5" height="5"/>
    <rect x="50" y="120" width="5" height="5"/>
    <rect x="60" y="120" width="5" height="5"/>
    <rect x="40" y="130" width="5" height="5"/>
    <rect x="60" y="130" width="5" height="5"/>
  </g>
  
  <!-- Texto explicativo -->
  <text x="100" y="195" text-anchor="middle" font-family="Arial, sans-serif" font-size="12" fill="#666">
    QR YAPE
  </text>
</svg>
